<?xml version="1.0" encoding="UTF-8" standalone="no"?>
<!DOCTYPE svg PUBLIC "-//W3C//DTD SVG 1.1//EN"
 "http://www.w3.org/Graphics/SVG/1.1/DTD/svg11.dtd">
<!-- Generated by graphviz version 5.0.0 (20220707.1540)
 -->
<!-- Title: dependencies Pages: 1 -->
<svg width="370pt" height="247pt"
 viewBox="0.00 0.00 370.00 246.80" xmlns="http://www.w3.org/2000/svg" xmlns:xlink="http://www.w3.org/1999/xlink">
<g id="graph0" class="graph" transform="scale(1 1) rotate(0) translate(4 242.8)">
<title>dependencies</title>
<polygon fill="white" stroke="transparent" points="-4,4 -4,-242.8 366,-242.8 366,4 -4,4"/>
<text text-anchor="middle" x="181" y="-8.2" font-family="sans-serif" font-size="14.00">dependencies</text>
<g id="clust1" class="cluster">
<title>cluster_BrandsModule</title>
<polygon fill="none" stroke="black" stroke-dasharray="1,5" points="8,-32.8 8,-230.8 354,-230.8 354,-32.8 8,-32.8"/>
</g>
<g id="clust3" class="cluster">
<title>cluster_BrandsModule_imports</title>
<polygon fill="none" stroke="black" points="174,-40.8 174,-92.8 346,-92.8 346,-40.8 174,-40.8"/>
</g>
<g id="clust4" class="cluster">
<title>cluster_BrandsModule_exports</title>
<polygon fill="none" stroke="black" points="116,-170.8 116,-222.8 234,-222.8 234,-170.8 116,-170.8"/>
</g>
<g id="clust6" class="cluster">
<title>cluster_BrandsModule_providers</title>
<polygon fill="none" stroke="black" points="16,-40.8 16,-92.8 166,-92.8 166,-40.8 16,-40.8"/>
</g>
<!-- BrandRepositoryModule -->
<g id="node1" class="node">
<title>BrandRepositoryModule</title>
<polygon fill="#8dd3c7" stroke="black" points="337.71,-84.8 334.71,-88.8 313.71,-88.8 310.71,-84.8 182.29,-84.8 182.29,-48.8 337.71,-48.8 337.71,-84.8"/>
<text text-anchor="middle" x="260" y="-62.6" font-family="Times,serif" font-size="14.00">BrandRepositoryModule</text>
</g>
<!-- BrandsModule -->
<g id="node2" class="node">
<title>BrandsModule</title>
<polygon fill="#8dd3c7" stroke="black" points="224.71,-149.8 221.71,-153.8 200.71,-153.8 197.71,-149.8 125.29,-149.8 125.29,-113.8 224.71,-113.8 224.71,-149.8"/>
<text text-anchor="middle" x="175" y="-127.6" font-family="Times,serif" font-size="14.00">BrandsModule</text>
</g>
<!-- BrandRepositoryModule&#45;&gt;BrandsModule -->
<g id="edge1" class="edge">
<title>BrandRepositoryModule&#45;&gt;BrandsModule</title>
<path fill="none" stroke="black" d="M203.5,-84.91C203.5,-84.91 203.5,-103.79 203.5,-103.79"/>
<polygon fill="black" stroke="black" points="200,-103.79 203.5,-113.79 207,-103.79 200,-103.79"/>
</g>
<!-- BrandsService  -->
<g id="node3" class="node">
<title>BrandsService </title>
<polygon fill="#fb8072" stroke="black" points="225.64,-214.8 124.36,-214.8 124.36,-178.8 225.64,-178.8 225.64,-214.8"/>
<text text-anchor="middle" x="175" y="-192.6" font-family="Times,serif" font-size="14.00">BrandsService </text>
</g>
<!-- BrandsModule&#45;&gt;BrandsService  -->
<g id="edge2" class="edge">
<title>BrandsModule&#45;&gt;BrandsService </title>
<path fill="none" stroke="black" stroke-dasharray="5,2" d="M175,-149.91C175,-149.91 175,-168.79 175,-168.79"/>
<polygon fill="black" stroke="black" points="171.5,-168.79 175,-178.79 178.5,-168.79 171.5,-168.79"/>
</g>
<!-- BrandsService -->
<g id="node4" class="node">
<title>BrandsService</title>
<ellipse fill="#fdb462" stroke="black" cx="91" cy="-66.8" rx="67.2" ry="18"/>
<text text-anchor="middle" x="91" y="-62.6" font-family="Times,serif" font-size="14.00">BrandsService</text>
</g>
<!-- BrandsService&#45;&gt;BrandsModule -->
<g id="edge3" class="edge">
<title>BrandsService&#45;&gt;BrandsModule</title>
<path fill="none" stroke="black" d="M141.87,-78.72C141.87,-78.72 141.87,-103.57 141.87,-103.57"/>
<polygon fill="black" stroke="black" points="138.37,-103.57 141.87,-113.57 145.37,-103.57 138.37,-103.57"/>
</g>
</g>
</svg>
