<?xml version="1.0" encoding="UTF-8" standalone="no"?>
<!DOCTYPE svg PUBLIC "-//W3C//DTD SVG 1.1//EN"
 "http://www.w3.org/Graphics/SVG/1.1/DTD/svg11.dtd">
<!-- Generated by graphviz version 5.0.0 (20220707.1540)
 -->
<!-- Title: dependencies Pages: 1 -->
<svg width="461pt" height="247pt"
 viewBox="0.00 0.00 461.00 246.80" xmlns="http://www.w3.org/2000/svg" xmlns:xlink="http://www.w3.org/1999/xlink">
<g id="graph0" class="graph" transform="scale(1 1) rotate(0) translate(4 242.8)">
<title>dependencies</title>
<polygon fill="white" stroke="transparent" points="-4,4 -4,-242.8 457,-242.8 457,4 -4,4"/>
<text text-anchor="middle" x="226.5" y="-8.2" font-family="sans-serif" font-size="14.00">dependencies</text>
<g id="clust1" class="cluster">
<title>cluster_ProductRepositoryModule</title>
<polygon fill="none" stroke="black" stroke-dasharray="1,5" points="8,-32.8 8,-230.8 445,-230.8 445,-32.8 8,-32.8"/>
</g>
<g id="clust3" class="cluster">
<title>cluster_ProductRepositoryModule_imports</title>
<polygon fill="none" stroke="black" points="206,-40.8 206,-92.8 437,-92.8 437,-40.8 206,-40.8"/>
</g>
<g id="clust6" class="cluster">
<title>cluster_ProductRepositoryModule_providers</title>
<polygon fill="none" stroke="black" points="16,-40.8 16,-92.8 198,-92.8 198,-40.8 16,-40.8"/>
</g>
<g id="clust4" class="cluster">
<title>cluster_ProductRepositoryModule_exports</title>
<polygon fill="none" stroke="black" points="193,-170.8 193,-222.8 333,-222.8 333,-170.8 193,-170.8"/>
</g>
<!-- BrandsModule -->
<g id="node1" class="node">
<title>BrandsModule</title>
<polygon fill="#8dd3c7" stroke="black" points="428.71,-84.8 425.71,-88.8 404.71,-88.8 401.71,-84.8 329.29,-84.8 329.29,-48.8 428.71,-48.8 428.71,-84.8"/>
<text text-anchor="middle" x="379" y="-62.6" font-family="Times,serif" font-size="14.00">BrandsModule</text>
</g>
<!-- ProductRepositoryModule -->
<g id="node3" class="node">
<title>ProductRepositoryModule</title>
<polygon fill="#8dd3c7" stroke="black" points="345.05,-149.8 342.05,-153.8 321.05,-153.8 318.05,-149.8 180.95,-149.8 180.95,-113.8 345.05,-113.8 345.05,-149.8"/>
<text text-anchor="middle" x="263" y="-127.6" font-family="Times,serif" font-size="14.00">ProductRepositoryModule</text>
</g>
<!-- BrandsModule&#45;&gt;ProductRepositoryModule -->
<g id="edge1" class="edge">
<title>BrandsModule&#45;&gt;ProductRepositoryModule</title>
<path fill="none" stroke="black" d="M337.33,-84.91C337.33,-84.91 337.33,-103.79 337.33,-103.79"/>
<polygon fill="black" stroke="black" points="333.83,-103.79 337.33,-113.79 340.83,-103.79 333.83,-103.79"/>
</g>
<!-- SellersModule -->
<g id="node2" class="node">
<title>SellersModule</title>
<polygon fill="#8dd3c7" stroke="black" points="311.66,-84.8 308.66,-88.8 287.66,-88.8 284.66,-84.8 214.34,-84.8 214.34,-48.8 311.66,-48.8 311.66,-84.8"/>
<text text-anchor="middle" x="263" y="-62.6" font-family="Times,serif" font-size="14.00">SellersModule</text>
</g>
<!-- SellersModule&#45;&gt;ProductRepositoryModule -->
<g id="edge2" class="edge">
<title>SellersModule&#45;&gt;ProductRepositoryModule</title>
<path fill="none" stroke="black" d="M263,-84.91C263,-84.91 263,-103.79 263,-103.79"/>
<polygon fill="black" stroke="black" points="259.5,-103.79 263,-113.79 266.5,-103.79 259.5,-103.79"/>
</g>
<!-- ProductRepository  -->
<g id="node4" class="node">
<title>ProductRepository </title>
<polygon fill="#fb8072" stroke="black" points="325.49,-214.8 200.51,-214.8 200.51,-178.8 325.49,-178.8 325.49,-214.8"/>
<text text-anchor="middle" x="263" y="-192.6" font-family="Times,serif" font-size="14.00">ProductRepository </text>
</g>
<!-- ProductRepositoryModule&#45;&gt;ProductRepository  -->
<g id="edge3" class="edge">
<title>ProductRepositoryModule&#45;&gt;ProductRepository </title>
<path fill="none" stroke="black" stroke-dasharray="5,2" d="M263,-149.91C263,-149.91 263,-168.79 263,-168.79"/>
<polygon fill="black" stroke="black" points="259.5,-168.79 263,-178.79 266.5,-168.79 259.5,-168.79"/>
</g>
<!-- ProductRepository -->
<g id="node5" class="node">
<title>ProductRepository</title>
<ellipse fill="#fdb462" stroke="black" cx="107" cy="-66.8" rx="83.42" ry="18"/>
<text text-anchor="middle" x="107" y="-62.6" font-family="Times,serif" font-size="14.00">ProductRepository</text>
</g>
<!-- ProductRepository&#45;&gt;ProductRepositoryModule -->
<g id="edge4" class="edge">
<title>ProductRepository&#45;&gt;ProductRepositoryModule</title>
<path fill="none" stroke="black" d="M185.59,-73.27C185.59,-73.27 185.59,-103.58 185.59,-103.58"/>
<polygon fill="black" stroke="black" points="182.09,-103.58 185.59,-113.58 189.09,-103.58 182.09,-103.58"/>
</g>
</g>
</svg>
