<?xml version="1.0" encoding="UTF-8" standalone="no"?>
<!DOCTYPE svg PUBLIC "-//W3C//DTD SVG 1.1//EN"
 "http://www.w3.org/Graphics/SVG/1.1/DTD/svg11.dtd">
<!-- Generated by graphviz version 5.0.0 (20220707.1540)
 -->
<!-- Title: dependencies Pages: 1 -->
<svg width="392pt" height="174pt"
 viewBox="0.00 0.00 392.00 173.80" xmlns="http://www.w3.org/2000/svg" xmlns:xlink="http://www.w3.org/1999/xlink">
<g id="graph0" class="graph" transform="scale(1 1) rotate(0) translate(4 169.8)">
<title>dependencies</title>
<polygon fill="white" stroke="transparent" points="-4,4 -4,-169.8 388,-169.8 388,4 -4,4"/>
<text text-anchor="middle" x="192" y="-8.2" font-family="sans-serif" font-size="14.00">dependencies</text>
<g id="clust1" class="cluster">
<title>cluster_ProductsModule</title>
<polygon fill="none" stroke="black" stroke-dasharray="1,5" points="8,-32.8 8,-157.8 376,-157.8 376,-32.8 8,-32.8"/>
</g>
<g id="clust3" class="cluster">
<title>cluster_ProductsModule_imports</title>
<polygon fill="none" stroke="black" points="188,-40.8 188,-92.8 368,-92.8 368,-40.8 188,-40.8"/>
</g>
<g id="clust6" class="cluster">
<title>cluster_ProductsModule_providers</title>
<polygon fill="none" stroke="black" points="16,-40.8 16,-92.8 180,-92.8 180,-40.8 16,-40.8"/>
</g>
<!-- ProductRepositoryModule -->
<g id="node1" class="node">
<title>ProductRepositoryModule</title>
<polygon fill="#8dd3c7" stroke="black" points="360.05,-84.8 357.05,-88.8 336.05,-88.8 333.05,-84.8 195.95,-84.8 195.95,-48.8 360.05,-48.8 360.05,-84.8"/>
<text text-anchor="middle" x="278" y="-62.6" font-family="Times,serif" font-size="14.00">ProductRepositoryModule</text>
</g>
<!-- ProductsModule -->
<g id="node2" class="node">
<title>ProductsModule</title>
<polygon fill="#8dd3c7" stroke="black" points="242.05,-149.8 239.05,-153.8 218.05,-153.8 215.05,-149.8 133.95,-149.8 133.95,-113.8 242.05,-113.8 242.05,-149.8"/>
<text text-anchor="middle" x="188" y="-127.6" font-family="Times,serif" font-size="14.00">ProductsModule</text>
</g>
<!-- ProductRepositoryModule&#45;&gt;ProductsModule -->
<g id="edge1" class="edge">
<title>ProductRepositoryModule&#45;&gt;ProductsModule</title>
<path fill="none" stroke="black" d="M219,-84.91C219,-84.91 219,-103.79 219,-103.79"/>
<polygon fill="black" stroke="black" points="215.5,-103.79 219,-113.79 222.5,-103.79 215.5,-103.79"/>
</g>
<!-- ProductsService -->
<g id="node3" class="node">
<title>ProductsService</title>
<ellipse fill="#fdb462" stroke="black" cx="98" cy="-66.8" rx="73.59" ry="18"/>
<text text-anchor="middle" x="98" y="-62.6" font-family="Times,serif" font-size="14.00">ProductsService</text>
</g>
<!-- ProductsService&#45;&gt;ProductsModule -->
<g id="edge2" class="edge">
<title>ProductsService&#45;&gt;ProductsModule</title>
<path fill="none" stroke="black" d="M152.76,-79.03C152.76,-79.03 152.76,-103.48 152.76,-103.48"/>
<polygon fill="black" stroke="black" points="149.26,-103.48 152.76,-113.48 156.26,-103.48 149.26,-103.48"/>
</g>
</g>
</svg>
