<?xml version="1.0" encoding="UTF-8" standalone="no"?>
<!DOCTYPE svg PUBLIC "-//W3C//DTD SVG 1.1//EN"
 "http://www.w3.org/Graphics/SVG/1.1/DTD/svg11.dtd">
<!-- Generated by graphviz version 5.0.0 (20220707.1540)
 -->
<!-- Title: dependencies Pages: 1 -->
<svg width="366pt" height="247pt"
 viewBox="0.00 0.00 366.00 246.80" xmlns="http://www.w3.org/2000/svg" xmlns:xlink="http://www.w3.org/1999/xlink">
<g id="graph0" class="graph" transform="scale(1 1) rotate(0) translate(4 242.8)">
<title>dependencies</title>
<polygon fill="white" stroke="transparent" points="-4,4 -4,-242.8 362,-242.8 362,4 -4,4"/>
<text text-anchor="middle" x="179" y="-8.2" font-family="sans-serif" font-size="14.00">dependencies</text>
<g id="clust1" class="cluster">
<title>cluster_SellersModule</title>
<polygon fill="none" stroke="black" stroke-dasharray="1,5" points="8,-32.8 8,-230.8 350,-230.8 350,-32.8 8,-32.8"/>
</g>
<g id="clust3" class="cluster">
<title>cluster_SellersModule_imports</title>
<polygon fill="none" stroke="black" points="172,-40.8 172,-92.8 342,-92.8 342,-40.8 172,-40.8"/>
</g>
<g id="clust4" class="cluster">
<title>cluster_SellersModule_exports</title>
<polygon fill="none" stroke="black" points="115,-170.8 115,-222.8 231,-222.8 231,-170.8 115,-170.8"/>
</g>
<g id="clust6" class="cluster">
<title>cluster_SellersModule_providers</title>
<polygon fill="none" stroke="black" points="16,-40.8 16,-92.8 164,-92.8 164,-40.8 16,-40.8"/>
</g>
<!-- SellerRepositoryModule -->
<g id="node1" class="node">
<title>SellerRepositoryModule</title>
<polygon fill="#8dd3c7" stroke="black" points="333.65,-84.8 330.65,-88.8 309.65,-88.8 306.65,-84.8 180.35,-84.8 180.35,-48.8 333.65,-48.8 333.65,-84.8"/>
<text text-anchor="middle" x="257" y="-62.6" font-family="Times,serif" font-size="14.00">SellerRepositoryModule</text>
</g>
<!-- SellersModule -->
<g id="node2" class="node">
<title>SellersModule</title>
<polygon fill="#8dd3c7" stroke="black" points="221.66,-149.8 218.66,-153.8 197.66,-153.8 194.66,-149.8 124.34,-149.8 124.34,-113.8 221.66,-113.8 221.66,-149.8"/>
<text text-anchor="middle" x="173" y="-127.6" font-family="Times,serif" font-size="14.00">SellersModule</text>
</g>
<!-- SellerRepositoryModule&#45;&gt;SellersModule -->
<g id="edge1" class="edge">
<title>SellerRepositoryModule&#45;&gt;SellersModule</title>
<path fill="none" stroke="black" d="M201,-84.91C201,-84.91 201,-103.79 201,-103.79"/>
<polygon fill="black" stroke="black" points="197.5,-103.79 201,-113.79 204.5,-103.79 197.5,-103.79"/>
</g>
<!-- SellersService  -->
<g id="node3" class="node">
<title>SellersService </title>
<polygon fill="#fb8072" stroke="black" points="222.58,-214.8 123.42,-214.8 123.42,-178.8 222.58,-178.8 222.58,-214.8"/>
<text text-anchor="middle" x="173" y="-192.6" font-family="Times,serif" font-size="14.00">SellersService </text>
</g>
<!-- SellersModule&#45;&gt;SellersService  -->
<g id="edge2" class="edge">
<title>SellersModule&#45;&gt;SellersService </title>
<path fill="none" stroke="black" stroke-dasharray="5,2" d="M173,-149.91C173,-149.91 173,-168.79 173,-168.79"/>
<polygon fill="black" stroke="black" points="169.5,-168.79 173,-178.79 176.5,-168.79 169.5,-168.79"/>
</g>
<!-- SellersService -->
<g id="node4" class="node">
<title>SellersService</title>
<ellipse fill="#fdb462" stroke="black" cx="90" cy="-66.8" rx="66.05" ry="18"/>
<text text-anchor="middle" x="90" y="-62.6" font-family="Times,serif" font-size="14.00">SellersService</text>
</g>
<!-- SellersService&#45;&gt;SellersModule -->
<g id="edge3" class="edge">
<title>SellersService&#45;&gt;SellersModule</title>
<path fill="none" stroke="black" d="M140.22,-78.72C140.22,-78.72 140.22,-103.57 140.22,-103.57"/>
<polygon fill="black" stroke="black" points="136.72,-103.57 140.22,-113.57 143.72,-103.57 136.72,-103.57"/>
</g>
</g>
</svg>
