<?xml version="1.0" encoding="UTF-8" standalone="no"?>
<!DOCTYPE svg PUBLIC "-//W3C//DTD SVG 1.1//EN"
 "http://www.w3.org/Graphics/SVG/1.1/DTD/svg11.dtd">
<!-- Generated by graphviz version 5.0.0 (20220707.1540)
 -->
<!-- Title: dependencies Pages: 1 -->
<svg width="398pt" height="174pt"
 viewBox="0.00 0.00 398.00 173.80" xmlns="http://www.w3.org/2000/svg" xmlns:xlink="http://www.w3.org/1999/xlink">
<g id="graph0" class="graph" transform="scale(1 1) rotate(0) translate(4 169.8)">
<title>dependencies</title>
<polygon fill="white" stroke="transparent" points="-4,4 -4,-169.8 394,-169.8 394,4 -4,4"/>
<text text-anchor="middle" x="195" y="-8.2" font-family="sans-serif" font-size="14.00">dependencies</text>
<g id="clust1" class="cluster">
<title>cluster_AppModule</title>
<polygon fill="none" stroke="black" stroke-dasharray="1,5" points="8,-32.8 8,-157.8 382,-157.8 382,-32.8 8,-32.8"/>
</g>
<g id="clust3" class="cluster">
<title>cluster_AppModule_imports</title>
<polygon fill="none" stroke="black" points="16,-40.8 16,-92.8 374,-92.8 374,-40.8 16,-40.8"/>
</g>
<!-- BrandsModule -->
<g id="node1" class="node">
<title>BrandsModule</title>
<polygon fill="#8dd3c7" stroke="black" points="365.71,-84.8 362.71,-88.8 341.71,-88.8 338.71,-84.8 266.29,-84.8 266.29,-48.8 365.71,-48.8 365.71,-84.8"/>
<text text-anchor="middle" x="316" y="-62.6" font-family="Times,serif" font-size="14.00">BrandsModule</text>
</g>
<!-- AppModule -->
<g id="node4" class="node">
<title>AppModule</title>
<polygon fill="#8dd3c7" stroke="black" points="235.66,-149.8 232.66,-153.8 211.66,-153.8 208.66,-149.8 152.34,-149.8 152.34,-113.8 235.66,-113.8 235.66,-149.8"/>
<text text-anchor="middle" x="194" y="-127.6" font-family="Times,serif" font-size="14.00">AppModule</text>
</g>
<!-- BrandsModule&#45;&gt;AppModule -->
<g id="edge1" class="edge">
<title>BrandsModule&#45;&gt;AppModule</title>
<path fill="none" stroke="black" d="M316,-84.91C316,-104.14 316,-131.8 316,-131.8 316,-131.8 245.99,-131.8 245.99,-131.8"/>
<polygon fill="black" stroke="black" points="245.99,-128.3 235.99,-131.8 245.99,-135.3 245.99,-128.3"/>
</g>
<!-- ProductsModule -->
<g id="node2" class="node">
<title>ProductsModule</title>
<polygon fill="#8dd3c7" stroke="black" points="248.05,-84.8 245.05,-88.8 224.05,-88.8 221.05,-84.8 139.95,-84.8 139.95,-48.8 248.05,-48.8 248.05,-84.8"/>
<text text-anchor="middle" x="194" y="-62.6" font-family="Times,serif" font-size="14.00">ProductsModule</text>
</g>
<!-- ProductsModule&#45;&gt;AppModule -->
<g id="edge2" class="edge">
<title>ProductsModule&#45;&gt;AppModule</title>
<path fill="none" stroke="black" d="M194,-84.91C194,-84.91 194,-103.79 194,-103.79"/>
<polygon fill="black" stroke="black" points="190.5,-103.79 194,-113.79 197.5,-103.79 190.5,-103.79"/>
</g>
<!-- SellersModule -->
<g id="node3" class="node">
<title>SellersModule</title>
<polygon fill="#8dd3c7" stroke="black" points="121.66,-84.8 118.66,-88.8 97.66,-88.8 94.66,-84.8 24.34,-84.8 24.34,-48.8 121.66,-48.8 121.66,-84.8"/>
<text text-anchor="middle" x="73" y="-62.6" font-family="Times,serif" font-size="14.00">SellersModule</text>
</g>
<!-- SellersModule&#45;&gt;AppModule -->
<g id="edge3" class="edge">
<title>SellersModule&#45;&gt;AppModule</title>
<path fill="none" stroke="black" d="M73,-84.91C73,-104.14 73,-131.8 73,-131.8 73,-131.8 142.02,-131.8 142.02,-131.8"/>
<polygon fill="black" stroke="black" points="142.02,-135.3 152.02,-131.8 142.02,-128.3 142.02,-135.3"/>
</g>
</g>
</svg>
