<?xml version="1.0" encoding="UTF-8" standalone="no"?>
<!DOCTYPE svg PUBLIC "-//W3C//DTD SVG 1.1//EN"
 "http://www.w3.org/Graphics/SVG/1.1/DTD/svg11.dtd">
<!-- Generated by graphviz version 5.0.0 (20220707.1540)
 -->
<!-- Title: dependencies Pages: 1 -->
<svg width="1393pt" height="405pt"
 viewBox="0.00 0.00 1393.00 404.80" xmlns="http://www.w3.org/2000/svg" xmlns:xlink="http://www.w3.org/1999/xlink">
<g id="graph0" class="graph" transform="scale(1 1) rotate(0) translate(4 400.8)">
<title>dependencies</title>
<polygon fill="white" stroke="transparent" points="-4,4 -4,-400.8 1389,-400.8 1389,4 -4,4"/>
<text text-anchor="middle" x="692.5" y="-8.2" font-family="sans-serif" font-size="14.00">dependencies</text>
<g id="clust1" class="cluster">
<title>cluster_AppModule</title>
<polygon fill="none" stroke="black" stroke-dasharray="1,5" points="408,-176.8 408,-312.8 781,-312.8 781,-176.8 408,-176.8"/>
</g>
<g id="clust3" class="cluster">
<title>cluster_AppModule_imports</title>
<polygon fill="none" stroke="black" points="416,-184.8 416,-236.8 773,-236.8 773,-184.8 416,-184.8"/>
</g>
<g id="clust7" class="cluster">
<title>cluster_BrandRepositoryModule</title>
<polygon fill="none" stroke="black" stroke-dasharray="1,5" points="214,-32.8 214,-244.8 400,-244.8 400,-32.8 214,-32.8"/>
</g>
<g id="clust10" class="cluster">
<title>cluster_BrandRepositoryModule_exports</title>
<polygon fill="none" stroke="black" points="244,-184.8 244,-236.8 376,-236.8 376,-184.8 244,-184.8"/>
</g>
<g id="clust12" class="cluster">
<title>cluster_BrandRepositoryModule_providers</title>
<polygon fill="none" stroke="black" points="222,-40.8 222,-92.8 392,-92.8 392,-40.8 222,-40.8"/>
</g>
<g id="clust13" class="cluster">
<title>cluster_BrandsModule</title>
<polygon fill="none" stroke="black" stroke-dasharray="1,5" points="789,-252.8 789,-320.8 1081,-320.8 1081,-252.8 789,-252.8"/>
</g>
<g id="clust16" class="cluster">
<title>cluster_BrandsModule_exports</title>
<polygon fill="none" stroke="black" points="955,-260.8 955,-312.8 1073,-312.8 1073,-260.8 955,-260.8"/>
</g>
<g id="clust18" class="cluster">
<title>cluster_BrandsModule_providers</title>
<polygon fill="none" stroke="black" points="797,-260.8 797,-312.8 947,-312.8 947,-260.8 797,-260.8"/>
</g>
<g id="clust19" class="cluster">
<title>cluster_ProductRepositoryModule</title>
<polygon fill="none" stroke="black" stroke-dasharray="1,5" points="8,-176.8 8,-388.8 206,-388.8 206,-176.8 8,-176.8"/>
</g>
<g id="clust22" class="cluster">
<title>cluster_ProductRepositoryModule_exports</title>
<polygon fill="none" stroke="black" points="46,-328.8 46,-380.8 186,-380.8 186,-328.8 46,-328.8"/>
</g>
<g id="clust24" class="cluster">
<title>cluster_ProductRepositoryModule_providers</title>
<polygon fill="none" stroke="black" points="16,-184.8 16,-236.8 198,-236.8 198,-184.8 16,-184.8"/>
</g>
<g id="clust25" class="cluster">
<title>cluster_ProductsModule</title>
<polygon fill="none" stroke="black" stroke-dasharray="1,5" points="408,-100.8 408,-168.8 588,-168.8 588,-100.8 408,-100.8"/>
</g>
<g id="clust30" class="cluster">
<title>cluster_ProductsModule_providers</title>
<polygon fill="none" stroke="black" points="416,-108.8 416,-160.8 580,-160.8 580,-108.8 416,-108.8"/>
</g>
<g id="clust31" class="cluster">
<title>cluster_SellerRepositoryModule</title>
<polygon fill="none" stroke="black" stroke-dasharray="1,5" points="789,-32.8 789,-244.8 973,-244.8 973,-32.8 789,-32.8"/>
</g>
<g id="clust34" class="cluster">
<title>cluster_SellerRepositoryModule_exports</title>
<polygon fill="none" stroke="black" points="812,-184.8 812,-236.8 942,-236.8 942,-184.8 812,-184.8"/>
</g>
<g id="clust36" class="cluster">
<title>cluster_SellerRepositoryModule_providers</title>
<polygon fill="none" stroke="black" points="797,-40.8 797,-92.8 965,-92.8 965,-40.8 797,-40.8"/>
</g>
<g id="clust37" class="cluster">
<title>cluster_SellersModule</title>
<polygon fill="none" stroke="black" stroke-dasharray="1,5" points="1089,-252.8 1089,-320.8 1377,-320.8 1377,-252.8 1089,-252.8"/>
</g>
<g id="clust40" class="cluster">
<title>cluster_SellersModule_exports</title>
<polygon fill="none" stroke="black" points="1253,-260.8 1253,-312.8 1369,-312.8 1369,-260.8 1253,-260.8"/>
</g>
<g id="clust42" class="cluster">
<title>cluster_SellersModule_providers</title>
<polygon fill="none" stroke="black" points="1097,-260.8 1097,-312.8 1245,-312.8 1245,-260.8 1097,-260.8"/>
</g>
<!-- BrandsModule -->
<g id="node1" class="node">
<title>BrandsModule</title>
<polygon fill="#8dd3c7" stroke="black" points="649.71,-228.8 646.71,-232.8 625.71,-232.8 622.71,-228.8 550.29,-228.8 550.29,-192.8 649.71,-192.8 649.71,-228.8"/>
<text text-anchor="middle" x="600" y="-206.6" font-family="Times,serif" font-size="14.00">BrandsModule</text>
</g>
<!-- AppModule -->
<g id="node4" class="node">
<title>AppModule</title>
<polygon fill="#8dd3c7" stroke="black" points="641.66,-304.8 638.66,-308.8 617.66,-308.8 614.66,-304.8 558.34,-304.8 558.34,-268.8 641.66,-268.8 641.66,-304.8"/>
<text text-anchor="middle" x="600" y="-282.6" font-family="Times,serif" font-size="14.00">AppModule</text>
</g>
<!-- BrandsModule&#45;&gt;AppModule -->
<g id="edge1" class="edge">
<title>BrandsModule&#45;&gt;AppModule</title>
<path fill="none" stroke="black" d="M600,-228.81C600,-228.81 600,-258.65 600,-258.65"/>
<polygon fill="black" stroke="black" points="596.5,-258.65 600,-268.65 603.5,-258.65 596.5,-258.65"/>
</g>
<!-- BrandsService  -->
<g id="node8" class="node">
<title>BrandsService </title>
<polygon fill="#fb8072" stroke="black" points="1064.64,-304.8 963.36,-304.8 963.36,-268.8 1064.64,-268.8 1064.64,-304.8"/>
<text text-anchor="middle" x="1014" y="-282.6" font-family="Times,serif" font-size="14.00">BrandsService </text>
</g>
<!-- BrandsModule&#45;&gt;BrandsService  -->
<g id="edge7" class="edge">
<title>BrandsModule&#45;&gt;BrandsService </title>
<path fill="none" stroke="black" stroke-dasharray="5,2" d="M644.42,-228.85C644.42,-243.17 644.42,-260.8 644.42,-260.8 644.42,-260.8 1014,-260.8 1014,-260.8 1014,-260.8 1014,-261.59 1014,-261.59"/>
<polygon fill="black" stroke="black" points="1010.5,-258.74 1014,-268.74 1017.5,-258.74 1010.5,-258.74"/>
</g>
<!-- ProductRepositoryModule -->
<g id="node10" class="node">
<title>ProductRepositoryModule</title>
<polygon fill="#8dd3c7" stroke="black" points="198.05,-304.8 195.05,-308.8 174.05,-308.8 171.05,-304.8 33.95,-304.8 33.95,-268.8 198.05,-268.8 198.05,-304.8"/>
<text text-anchor="middle" x="116" y="-282.6" font-family="Times,serif" font-size="14.00">ProductRepositoryModule</text>
</g>
<!-- BrandsModule&#45;&gt;ProductRepositoryModule -->
<g id="edge9" class="edge">
<title>BrandsModule&#45;&gt;ProductRepositoryModule</title>
<path fill="none" stroke="black" d="M554.28,-228.81C554.28,-251.29 554.28,-286.8 554.28,-286.8 554.28,-286.8 208.18,-286.8 208.18,-286.8"/>
<polygon fill="black" stroke="black" points="208.18,-283.3 198.18,-286.8 208.18,-290.3 208.18,-283.3"/>
</g>
<!-- ProductsModule -->
<g id="node2" class="node">
<title>ProductsModule</title>
<polygon fill="#8dd3c7" stroke="black" points="532.05,-228.8 529.05,-232.8 508.05,-232.8 505.05,-228.8 423.95,-228.8 423.95,-192.8 532.05,-192.8 532.05,-228.8"/>
<text text-anchor="middle" x="478" y="-206.6" font-family="Times,serif" font-size="14.00">ProductsModule</text>
</g>
<!-- ProductsModule&#45;&gt;AppModule -->
<g id="edge2" class="edge">
<title>ProductsModule&#45;&gt;AppModule</title>
<path fill="none" stroke="black" d="M496.09,-228.83C496.09,-253.78 496.09,-295.8 496.09,-295.8 496.09,-295.8 548.34,-295.8 548.34,-295.8"/>
<polygon fill="black" stroke="black" points="548.34,-299.3 558.34,-295.8 548.34,-292.3 548.34,-299.3"/>
</g>
<!-- SellersModule -->
<g id="node3" class="node">
<title>SellersModule</title>
<polygon fill="#8dd3c7" stroke="black" points="764.66,-228.8 761.66,-232.8 740.66,-232.8 737.66,-228.8 667.34,-228.8 667.34,-192.8 764.66,-192.8 764.66,-228.8"/>
<text text-anchor="middle" x="716" y="-206.6" font-family="Times,serif" font-size="14.00">SellersModule</text>
</g>
<!-- SellersModule&#45;&gt;AppModule -->
<g id="edge3" class="edge">
<title>SellersModule&#45;&gt;AppModule</title>
<path fill="none" stroke="black" d="M745.3,-229C745.3,-253.16 745.3,-292.8 745.3,-292.8 745.3,-292.8 652.03,-292.8 652.03,-292.8"/>
<polygon fill="black" stroke="black" points="652.03,-289.3 642.03,-292.8 652.03,-296.3 652.03,-289.3"/>
</g>
<!-- SellersModule&#45;&gt;ProductRepositoryModule -->
<g id="edge10" class="edge">
<title>SellersModule&#45;&gt;ProductRepositoryModule</title>
<path fill="none" stroke="black" d="M686.7,-228.86C686.7,-233.29 686.7,-236.8 686.7,-236.8 686.7,-236.8 194.37,-236.8 194.37,-236.8 194.37,-236.8 194.37,-258.75 194.37,-258.75"/>
<polygon fill="black" stroke="black" points="190.87,-258.75 194.37,-268.75 197.87,-258.75 190.87,-258.75"/>
</g>
<!-- SellersService  -->
<g id="node17" class="node">
<title>SellersService </title>
<polygon fill="#fb8072" stroke="black" points="1360.58,-304.8 1261.42,-304.8 1261.42,-268.8 1360.58,-268.8 1360.58,-304.8"/>
<text text-anchor="middle" x="1311" y="-282.6" font-family="Times,serif" font-size="14.00">SellersService </text>
</g>
<!-- SellersModule&#45;&gt;SellersService  -->
<g id="edge18" class="edge">
<title>SellersModule&#45;&gt;SellersService </title>
<path fill="none" stroke="black" stroke-dasharray="5,2" d="M706.23,-228.99C706.23,-237.08 706.23,-244.8 706.23,-244.8 706.23,-244.8 1311,-244.8 1311,-244.8 1311,-244.8 1311,-258.74 1311,-258.74"/>
<polygon fill="black" stroke="black" points="1307.5,-258.74 1311,-268.74 1314.5,-258.74 1307.5,-258.74"/>
</g>
<!-- BrandRepository  -->
<g id="node5" class="node">
<title>BrandRepository </title>
<polygon fill="#fb8072" stroke="black" points="367.66,-228.8 252.34,-228.8 252.34,-192.8 367.66,-192.8 367.66,-228.8"/>
<text text-anchor="middle" x="310" y="-206.6" font-family="Times,serif" font-size="14.00">BrandRepository </text>
</g>
<!-- BrandRepositoryModule -->
<g id="node6" class="node">
<title>BrandRepositoryModule</title>
<polygon fill="#8dd3c7" stroke="black" points="387.71,-152.8 384.71,-156.8 363.71,-156.8 360.71,-152.8 232.29,-152.8 232.29,-116.8 387.71,-116.8 387.71,-152.8"/>
<text text-anchor="middle" x="310" y="-130.6" font-family="Times,serif" font-size="14.00">BrandRepositoryModule</text>
</g>
<!-- BrandRepositoryModule&#45;&gt;BrandsModule -->
<g id="edge6" class="edge">
<title>BrandRepositoryModule&#45;&gt;BrandsModule</title>
<path fill="none" stroke="black" d="M377.59,-152.91C377.59,-162.7 377.59,-172.8 377.59,-172.8 377.59,-172.8 561.09,-172.8 561.09,-172.8 561.09,-172.8 561.09,-182.69 561.09,-182.69"/>
<polygon fill="black" stroke="black" points="557.59,-182.69 561.09,-192.69 564.59,-182.69 557.59,-182.69"/>
</g>
<!-- BrandRepositoryModule&#45;&gt;BrandRepository  -->
<g id="edge4" class="edge">
<title>BrandRepositoryModule&#45;&gt;BrandRepository </title>
<path fill="none" stroke="black" stroke-dasharray="5,2" d="M310,-152.81C310,-152.81 310,-182.65 310,-182.65"/>
<polygon fill="black" stroke="black" points="306.5,-182.65 310,-192.65 313.5,-182.65 306.5,-182.65"/>
</g>
<!-- BrandRepository -->
<g id="node7" class="node">
<title>BrandRepository</title>
<ellipse fill="#fdb462" stroke="black" cx="307" cy="-66.8" rx="77.04" ry="18"/>
<text text-anchor="middle" x="307" y="-62.6" font-family="Times,serif" font-size="14.00">BrandRepository</text>
</g>
<!-- BrandRepository&#45;&gt;BrandRepositoryModule -->
<g id="edge5" class="edge">
<title>BrandRepository&#45;&gt;BrandRepositoryModule</title>
<path fill="none" stroke="black" d="M308.21,-85.02C308.21,-85.02 308.21,-106.53 308.21,-106.53"/>
<polygon fill="black" stroke="black" points="304.71,-106.53 308.21,-116.53 311.71,-106.53 304.71,-106.53"/>
</g>
<!-- BrandsService -->
<g id="node9" class="node">
<title>BrandsService</title>
<ellipse fill="#fdb462" stroke="black" cx="872" cy="-286.8" rx="67.2" ry="18"/>
<text text-anchor="middle" x="872" y="-282.6" font-family="Times,serif" font-size="14.00">BrandsService</text>
</g>
<!-- BrandsService&#45;&gt;BrandsModule -->
<g id="edge8" class="edge">
<title>BrandsService&#45;&gt;BrandsModule</title>
<path fill="none" stroke="black" d="M808.43,-280.8C741.9,-280.8 647.01,-280.8 647.01,-280.8 647.01,-280.8 647.01,-238.83 647.01,-238.83"/>
<polygon fill="black" stroke="black" points="650.51,-238.83 647.01,-228.83 643.51,-238.83 650.51,-238.83"/>
</g>
<!-- ProductRepositoryModule&#45;&gt;ProductsModule -->
<g id="edge13" class="edge">
<title>ProductRepositoryModule&#45;&gt;ProductsModule</title>
<path fill="none" stroke="black" d="M198.37,-277.8C300.12,-277.8 459.91,-277.8 459.91,-277.8 459.91,-277.8 459.91,-239.11 459.91,-239.11"/>
<polygon fill="black" stroke="black" points="463.41,-239.11 459.91,-229.11 456.41,-239.11 463.41,-239.11"/>
</g>
<!-- ProductRepository  -->
<g id="node11" class="node">
<title>ProductRepository </title>
<polygon fill="#fb8072" stroke="black" points="178.49,-372.8 53.51,-372.8 53.51,-336.8 178.49,-336.8 178.49,-372.8"/>
<text text-anchor="middle" x="116" y="-350.6" font-family="Times,serif" font-size="14.00">ProductRepository </text>
</g>
<!-- ProductRepositoryModule&#45;&gt;ProductRepository  -->
<g id="edge11" class="edge">
<title>ProductRepositoryModule&#45;&gt;ProductRepository </title>
<path fill="none" stroke="black" stroke-dasharray="5,2" d="M116,-305.02C116,-305.02 116,-326.53 116,-326.53"/>
<polygon fill="black" stroke="black" points="112.5,-326.53 116,-336.53 119.5,-326.53 112.5,-326.53"/>
</g>
<!-- ProductRepository -->
<g id="node12" class="node">
<title>ProductRepository</title>
<ellipse fill="#fdb462" stroke="black" cx="107" cy="-210.8" rx="83.42" ry="18"/>
<text text-anchor="middle" x="107" y="-206.6" font-family="Times,serif" font-size="14.00">ProductRepository</text>
</g>
<!-- ProductRepository&#45;&gt;ProductRepositoryModule -->
<g id="edge12" class="edge">
<title>ProductRepository&#45;&gt;ProductRepositoryModule</title>
<path fill="none" stroke="black" d="M112.09,-228.81C112.09,-228.81 112.09,-258.65 112.09,-258.65"/>
<polygon fill="black" stroke="black" points="108.59,-258.65 112.09,-268.65 115.59,-258.65 108.59,-258.65"/>
</g>
<!-- ProductsService -->
<g id="node13" class="node">
<title>ProductsService</title>
<ellipse fill="#fdb462" stroke="black" cx="498" cy="-134.8" rx="73.59" ry="18"/>
<text text-anchor="middle" x="498" y="-130.6" font-family="Times,serif" font-size="14.00">ProductsService</text>
</g>
<!-- ProductsService&#45;&gt;ProductsModule -->
<g id="edge14" class="edge">
<title>ProductsService&#45;&gt;ProductsModule</title>
<path fill="none" stroke="black" d="M478.24,-152.43C478.24,-152.43 478.24,-182.74 478.24,-182.74"/>
<polygon fill="black" stroke="black" points="474.74,-182.74 478.24,-192.74 481.74,-182.74 474.74,-182.74"/>
</g>
<!-- SellerRepository  -->
<g id="node14" class="node">
<title>SellerRepository </title>
<polygon fill="#fb8072" stroke="black" points="933.6,-228.8 820.4,-228.8 820.4,-192.8 933.6,-192.8 933.6,-228.8"/>
<text text-anchor="middle" x="877" y="-206.6" font-family="Times,serif" font-size="14.00">SellerRepository </text>
</g>
<!-- SellerRepositoryModule -->
<g id="node15" class="node">
<title>SellerRepositoryModule</title>
<polygon fill="#8dd3c7" stroke="black" points="953.65,-152.8 950.65,-156.8 929.65,-156.8 926.65,-152.8 800.35,-152.8 800.35,-116.8 953.65,-116.8 953.65,-152.8"/>
<text text-anchor="middle" x="877" y="-130.6" font-family="Times,serif" font-size="14.00">SellerRepositoryModule</text>
</g>
<!-- SellerRepositoryModule&#45;&gt;SellersModule -->
<g id="edge17" class="edge">
<title>SellerRepositoryModule&#45;&gt;SellersModule</title>
<path fill="none" stroke="black" d="M812.43,-152.81C812.43,-175.29 812.43,-210.8 812.43,-210.8 812.43,-210.8 774.78,-210.8 774.78,-210.8"/>
<polygon fill="black" stroke="black" points="774.78,-207.3 764.78,-210.8 774.78,-214.3 774.78,-207.3"/>
</g>
<!-- SellerRepositoryModule&#45;&gt;SellerRepository  -->
<g id="edge15" class="edge">
<title>SellerRepositoryModule&#45;&gt;SellerRepository </title>
<path fill="none" stroke="black" stroke-dasharray="5,2" d="M877,-152.81C877,-152.81 877,-182.65 877,-182.65"/>
<polygon fill="black" stroke="black" points="873.5,-182.65 877,-192.65 880.5,-182.65 873.5,-182.65"/>
</g>
<!-- SellerRepository -->
<g id="node16" class="node">
<title>SellerRepository</title>
<ellipse fill="#fdb462" stroke="black" cx="881" cy="-66.8" rx="75.89" ry="18"/>
<text text-anchor="middle" x="881" y="-62.6" font-family="Times,serif" font-size="14.00">SellerRepository</text>
</g>
<!-- SellerRepository&#45;&gt;SellerRepositoryModule -->
<g id="edge16" class="edge">
<title>SellerRepository&#45;&gt;SellerRepositoryModule</title>
<path fill="none" stroke="black" d="M879.44,-85.02C879.44,-85.02 879.44,-106.53 879.44,-106.53"/>
<polygon fill="black" stroke="black" points="875.94,-106.53 879.44,-116.53 882.94,-106.53 875.94,-106.53"/>
</g>
<!-- SellersService -->
<g id="node18" class="node">
<title>SellersService</title>
<ellipse fill="#fdb462" stroke="black" cx="1171" cy="-286.8" rx="66.05" ry="18"/>
<text text-anchor="middle" x="1171" y="-282.6" font-family="Times,serif" font-size="14.00">SellersService</text>
</g>
<!-- SellersService&#45;&gt;SellersModule -->
<g id="edge19" class="edge">
<title>SellersService&#45;&gt;SellersModule</title>
<path fill="none" stroke="black" d="M1171,-268.61C1171,-260.52 1171,-252.8 1171,-252.8 1171,-252.8 725.77,-252.8 725.77,-252.8 725.77,-252.8 725.77,-238.86 725.77,-238.86"/>
<polygon fill="black" stroke="black" points="729.27,-238.86 725.77,-228.86 722.27,-238.86 729.27,-238.86"/>
</g>
</g>
</svg>
